<svg width="95" height="77" viewBox="0 0 95 77" fill="none" xmlns="http://www.w3.org/2000/svg">
<path class="elipseAnonoymusUser" d="M94.5 38.5C94.5 59.3938 73.5606 76.5 47.5 76.5C21.4394 76.5 0.5 59.3938 0.5 38.5C0.5 17.6062 21.4394 0.5 47.5 0.5C73.5606 0.5 94.5 17.6062 94.5 38.5Z" fill="#DEDEDE" stroke="#0A1B35"/>
<path d="M48 32C52.4183 32 56 28.4183 56 24C56 19.5817 52.4183 16 48 16C43.5818 16 40 19.5817 40 24C40 28.4183 43.5818 32 48 32Z" fill="#F9515A"/>
<path opacity="0.5" d="M64 47C64 51.97 64 56 48 56C32 56 32 51.97 32 47C32 42.03 39.164 38 48 38C56.836 38 64 42.03 64 47Z" fill="#803945"/>
</svg>
