<svg class="passwordSee" width="92" height="65" viewBox="0 0 92 65" fill="none" xmlns="http://www.w3.org/2000/svg">
<path class="lineThroughEye transition duration-200" d="M10 60.5L84 4" stroke="#DB6AF7" stroke-width="10"/>
<path d="M7 30.1635C36.898 0.893806 53.9667 0.331841 85 30.1635C53.0236 66.665 36.1186 62.4963 7 30.1635Z" stroke="#DB6AF7" stroke-width="9"/>
<mask id="path-3-inside-1_75_15" fill="white">
<ellipse cx="46" cy="32" rx="11" ry="8"/>
</mask>
<ellipse cx="46" cy="32" rx="11" ry="8" fill="#DB6AF7"/>
<path d="M47 32C47 31.1911 47.2371 30.5235 47.4912 30.0866C47.7268 29.6814 47.93 29.5451 47.8965 29.5695C47.7917 29.6457 47.1536 30 46 30V50C50.9215 50 55.7834 48.5635 59.6599 45.7442C63.5266 42.9321 67 38.1967 67 32H47ZM46 30C44.8464 30 44.2083 29.6457 44.1035 29.5695C44.07 29.5451 44.2732 29.6814 44.5088 30.0866C44.7629 30.5235 45 31.1911 45 32H25C25 38.1967 28.4734 42.9321 32.3401 45.7442C36.2166 48.5635 41.0785 50 46 50V30ZM45 32C45 32.8089 44.7629 33.4765 44.5088 33.9134C44.2732 34.3186 44.07 34.4549 44.1035 34.4305C44.2083 34.3543 44.8464 34 46 34V14C41.0785 14 36.2166 15.4365 32.3401 18.2558C28.4734 21.0679 25 25.8033 25 32H45ZM46 34C47.1536 34 47.7917 34.3543 47.8965 34.4305C47.93 34.4549 47.7268 34.3186 47.4912 33.9134C47.2371 33.4765 47 32.8089 47 32H67C67 25.8033 63.5266 21.0679 59.6599 18.2558C55.7834 15.4365 50.9215 14 46 14V34Z" fill="#DB6AF7" mask="url(#path-3-inside-1_75_15)"/>
</svg>
