<svg  viewBox="0 0 201 201" fill="none" xmlns="http://www.w3.org/2000/svg">
    <path fill-rule="evenodd" clip-rule="evenodd"
          d="M124.147 165.529C124.147 178.571 113.541 189.176 100.5 189.176C87.4587 189.176 76.853 178.571 76.853 165.529H124.147ZM100.5 23.647C136.349 23.647 165.529 52.8157 165.529 88.6765V130.059C165.529 139.139 168.958 147.428 174.574 153.706H26.4138C32.0418 147.428 35.4706 139.139 35.4706 130.059V88.6765C35.4706 52.8158 64.6393 23.647 100.5 23.647ZM177.353 130.059V88.6766C177.353 48.2993 146.021 15.1579 106.412 12.1193V0H94.5883V12.1191C54.9676 15.1578 23.6471 48.2991 23.6471 88.6765V130.059C23.6471 143.1 13.0413 153.706 0 153.706V165.529H65.0295C65.0295 185.086 80.9321 201 100.5 201C120.056 201 135.971 185.086 135.971 165.529H201V153.706C187.959 153.706 177.353 143.1 177.353 130.059Z"
          fill="#C662E4"/>
</svg>
