<svg width="262" height="288" viewBox="0 0 262 288" fill="none" xmlns="http://www.w3.org/2000/svg">
<path d="M157.324 287.869H103.767C31.0631 287.869 0 256.806 0 184.103V103.767C0 31.0631 31.0631 0 103.767 0H157.324C230.028 0 261.091 31.0631 261.091 103.767V184.103C261.091 256.806 230.028 287.869 157.324 287.869ZM103.767 20.0839C42.0423 20.0839 20.0839 42.0423 20.0839 103.767V184.103C20.0839 245.827 42.0423 267.786 103.767 267.786H157.324C219.049 267.786 241.007 245.827 241.007 184.103V103.767C241.007 42.0423 219.049 20.0839 157.324 20.0839H103.767Z" fill="#C662E4"/>
<path d="M170.713 128.271H90.3776C73.7749 128.271 60.2517 114.747 60.2517 98.1445V84.7553C60.2517 68.1526 73.7749 54.6294 90.3776 54.6294H170.713C187.316 54.6294 200.839 68.1526 200.839 84.7553V98.1445C200.839 114.747 187.316 128.271 170.713 128.271ZM90.3776 74.7133C84.888 74.7133 80.3357 79.2657 80.3357 84.7553V98.1445C80.3357 103.634 84.888 108.187 90.3776 108.187H170.713C176.203 108.187 180.755 103.634 180.755 98.1445V84.7553C180.755 79.2657 176.203 74.7133 170.713 74.7133H90.3776Z" fill="#C662E4"/>
<path d="M78.9988 183.035C77.2582 183.035 75.5176 182.634 73.9109 181.964C72.3042 181.295 70.8314 180.358 69.6263 179.153C67.0824 176.609 65.7434 173.261 65.7434 169.646C65.7434 167.906 66.0112 166.165 66.6807 164.558C67.3502 162.818 68.2874 161.479 69.6263 160.14C70.1619 159.604 70.8314 158.935 71.6347 158.533C72.3042 157.998 73.1075 157.596 73.9109 157.328C74.7143 156.926 75.6515 156.659 76.4549 156.525C80.7394 155.587 85.4257 157.06 88.5052 160.14C89.7102 161.345 90.7814 162.818 91.4509 164.558C92.1203 166.165 92.522 167.906 92.522 169.646C92.522 173.261 91.0492 176.609 88.5052 179.153C85.9612 181.697 82.6139 183.035 78.9988 183.035Z" fill="#C662E4"/>
<path d="M132.691 183.031C129.076 183.031 125.728 181.692 123.184 179.148C120.64 176.604 119.301 173.256 119.301 169.641C119.301 167.901 119.569 166.16 120.239 164.553C120.908 162.813 121.845 161.474 123.184 160.135C123.72 159.599 124.389 158.93 125.193 158.528C125.862 157.993 126.665 157.591 127.469 157.323C128.272 156.921 129.209 156.654 130.013 156.52C132.557 155.984 135.235 156.252 137.779 157.323C139.385 157.993 140.858 158.93 142.063 160.135C143.268 161.474 144.339 162.813 145.009 164.553C145.678 166.16 146.08 167.901 146.08 169.641C146.08 173.256 144.607 176.604 142.063 179.148C139.519 181.692 136.172 183.031 132.691 183.031Z" fill="#C662E4"/>
<path d="M186.114 183.033C184.373 183.033 182.633 182.631 181.026 181.962C179.419 181.292 177.946 180.355 176.741 179.15C175.402 177.811 174.465 176.338 173.796 174.732C173.126 173.125 172.858 171.384 172.858 169.644C172.858 167.903 173.126 166.163 173.796 164.556C174.465 162.815 175.402 161.476 176.741 160.137C181.695 155.183 190.666 155.183 195.62 160.137C198.164 162.681 199.637 166.163 199.637 169.644C199.637 173.259 198.164 176.606 195.62 179.15C193.21 181.56 189.863 183.033 186.114 183.033Z" fill="#C662E4"/>
<path d="M79.1359 236.588C75.5207 236.588 72.1734 235.249 69.6295 232.705C67.0855 230.161 65.6127 226.813 65.6127 223.198C65.6127 219.717 67.0855 216.236 69.6295 213.692C70.165 213.156 70.9684 212.487 71.6379 212.085C72.3073 211.55 73.1107 211.148 73.914 210.88C74.7174 210.479 75.6546 210.211 76.458 210.077C80.8765 209.273 85.4288 210.612 88.5083 213.692C89.1778 214.361 89.7134 215.031 90.249 215.7C90.6506 216.504 91.0523 217.307 91.454 218.11C91.7218 218.914 91.9896 219.717 92.2573 220.52C92.3912 221.458 92.5251 222.261 92.5251 223.198C92.5251 226.813 91.0523 230.161 88.5083 232.705C85.9644 235.249 82.6171 236.588 79.1359 236.588Z" fill="#C662E4"/>
<path d="M132.693 236.588C129.078 236.588 125.731 235.249 123.187 232.705C120.643 230.161 119.17 226.813 119.17 223.198C119.17 219.717 120.643 216.236 123.187 213.692C126.266 210.612 130.952 209.273 135.237 210.077C136.04 210.211 136.978 210.479 137.781 210.88C138.584 211.148 139.388 211.55 140.057 212.085C140.727 212.487 141.396 213.156 142.065 213.692C144.609 216.236 145.948 219.717 145.948 223.198C145.948 226.813 144.609 230.161 142.065 232.705C139.522 235.249 136.174 236.588 132.693 236.588Z" fill="#C662E4"/>
<path d="M186.114 236.591C182.633 236.591 179.285 235.252 176.741 232.708C174.197 230.165 172.858 226.817 172.858 223.202C172.858 219.721 174.197 216.24 176.741 213.696C177.946 212.491 179.419 211.553 181.026 210.884C185.98 208.876 192.005 209.947 195.62 213.696C198.164 216.24 199.503 219.721 199.503 223.202C199.503 226.817 198.164 230.165 195.62 232.708C194.415 233.914 192.942 234.851 191.336 235.52C189.729 236.19 187.988 236.591 186.114 236.591Z" fill="#C662E4"/>
</svg>
