<svg width="466" height="330" viewBox="0 0 466 330" fill="none" xmlns="http://www.w3.org/2000/svg">
<path d="M466 165C466 74.085 361.383 0 233 0C104.617 0 0 74.085 0 165C0 212.85 29.125 255.915 75.259 286.11C75.259 286.275 75.259 286.275 75.026 286.44C77.356 288.09 80.152 289.41 82.482 290.895C83.88 291.72 85.045 292.545 86.443 293.205C90.637 295.68 95.297 297.99 99.724 300.3C101.355 301.125 102.753 301.785 104.384 302.61C108.811 304.755 113.471 306.735 118.364 308.55C119.995 309.21 121.859 310.035 123.49 310.695C128.15 312.51 133.043 314.16 138.169 315.645C140.033 316.305 141.897 316.965 143.761 317.46C148.887 318.945 154.013 320.265 159.139 321.42C161.003 321.915 162.867 322.41 164.731 322.74C170.323 323.895 175.915 324.885 181.507 325.875C183.138 326.205 184.769 326.535 186.633 326.7C193.157 327.69 199.681 328.35 206.438 328.845C207.37 328.845 208.302 329.01 209.234 329.175C217.156 329.67 225.078 330 233 330C240.922 330 248.844 329.67 256.533 329.175C257.465 329.175 258.397 329.01 259.329 328.845C266.086 328.35 272.61 327.69 279.134 326.7C280.765 326.535 282.396 326.04 284.26 325.875C289.852 324.885 295.677 324.06 301.036 322.74C302.9 322.245 304.764 321.75 306.628 321.42C311.754 320.1 317.113 318.945 322.006 317.46C323.87 316.965 325.734 316.305 327.598 315.645C332.491 314.16 337.384 312.51 342.277 310.695C344.141 310.035 345.772 309.21 347.403 308.55C352.063 306.57 356.723 304.755 361.383 302.61C363.014 301.95 364.412 301.125 366.043 300.3C370.703 297.99 375.13 295.68 379.324 293.205C380.722 292.38 381.887 291.555 383.285 290.895C385.848 289.41 388.411 287.925 390.741 286.44C390.741 286.275 390.741 286.275 390.508 286.11C436.875 255.915 466 212.85 466 165ZM348.102 247.005C284.959 216.975 181.507 216.975 117.898 247.005C107.646 251.79 99.258 257.4 92.268 263.505C56.852 238.095 34.95 203.28 34.95 165C34.95 87.615 123.723 24.75 233 24.75C342.277 24.75 431.05 87.615 431.05 165C431.05 203.28 409.148 238.095 373.732 263.505C366.975 257.4 358.354 251.79 348.102 247.005Z" fill="#DB6AF7"/>
<path d="M233 81.3398C184.769 81.3398 145.625 109.06 145.625 143.215C145.625 176.71 182.672 203.935 231.835 204.925H233.932H235.563H236.029C283.095 203.77 320.142 176.71 320.375 143.215C320.375 109.06 281.231 81.3398 233 81.3398Z" fill="#DB6AF7"/>
</svg>
