<svg width="524" height="496" viewBox="0 0 524 496" fill="none" xmlns="http://www.w3.org/2000/svg">
<path d="M262 4.5L3 181V358.5L280.009 492L521 345.5V168L262 4.5Z" fill="#1d2531" stroke="#CC00FF" stroke-width="6"/>
<path d="M250.913 371.905C250.398 371.742 249.885 371.58 249.374 371.418M249.374 371.418C187.067 351.617 161.831 333.262 135 288.113V175.545C166.244 159.901 193.314 154.611 257.601 151C324.095 153.263 351.737 159.34 386.888 177.238L388.003 288.113C359.534 335.287 334.326 353.561 273.204 371.905V342.281H249.374V371.418Z" stroke="#CC00FF"/>
<path d="M163.977 230.391C186.808 217.103 199.983 217.045 224.163 230.391C200.983 239.698 187.853 239.771 163.977 230.391Z" fill="#CC00FF"/>
<path d="M303.296 230.391C324.482 218.426 336.916 218.29 360.138 230.391C338.939 239.346 326.533 239.606 303.296 230.391Z" fill="#CC00FF"/>
<path d="M163.977 230.391C186.808 217.103 199.983 217.045 224.163 230.391C200.983 239.698 187.853 239.771 163.977 230.391Z" stroke="#272525"/>
<path d="M303.296 230.391C324.482 218.426 336.916 218.29 360.138 230.391C338.939 239.346 326.533 239.606 303.296 230.391Z" stroke="#272525"/>
<path d="M194.071 194.351C176.243 195.45 166.673 198.164 150.604 207.893C155.672 196.922 163.507 191.142 188.498 181.656C214.1 180.642 226.914 183.298 243.111 201.969C249.207 207.304 249.511 210.269 245.34 215.511C238.367 221.588 234.335 220.904 227.046 216.357C219.919 203.446 212.965 198.208 194.071 194.351Z" fill="#CC00FF"/>
<path d="M313.328 182.502C289.073 190.245 279.624 196.788 277.662 216.357C282.935 220.042 286.062 220.909 292.151 218.896C301.264 207.145 307.71 201.871 321.13 194.351C334.942 188.249 341.305 189.147 351.223 195.198L372.399 209.586C371.347 202.695 368.916 199.012 362.368 192.658C355.542 186.361 350.365 184.169 338.963 182.502H313.328Z" fill="#CC00FF"/>
<path d="M227.508 217.203C227.354 216.918 227.2 216.636 227.046 216.357M227.046 216.357C219.919 203.446 212.965 198.208 194.071 194.351C176.243 195.45 166.673 198.164 150.604 207.893C155.672 196.922 163.507 191.142 188.498 181.656C214.1 180.642 226.914 183.298 243.111 201.969C249.207 207.304 249.511 210.269 245.34 215.511C238.367 221.588 234.335 220.904 227.046 216.357ZM277.662 216.357C279.624 196.788 289.073 190.245 313.328 182.502H338.963C350.365 184.169 355.542 186.361 362.368 192.658C368.916 199.012 371.347 202.695 372.399 209.586L351.223 195.198C341.305 189.147 334.942 188.249 321.13 194.351C307.71 201.871 301.264 207.145 292.151 218.896C286.062 220.909 282.935 220.042 277.662 216.357Z" stroke="#272525"/>
<path d="M199.643 320.276L163.977 274.572L206.33 300.809H226.392L250.912 283.882H276.547L297.723 300.809H317.785L361.253 274.572L325.587 321.123H274.318C271.556 317.037 269.264 315.11 263.172 312.659C257.638 314.971 254.925 316.617 250.912 320.276H199.643Z" fill="#CC00FF" stroke="#272525"/>
</svg>
