<svg  viewBox="0 0 188 189" fill="none" xmlns="http://www.w3.org/2000/svg">
<path d="M123.481 188.738H122.292C81.6912 188.738 62.1223 172.735 58.7389 136.89C58.3732 133.14 61.1165 129.757 64.9571 129.391C68.6148 129.025 72.0897 131.86 72.4554 135.609C75.1073 164.323 88.6409 175.021 122.384 175.021H123.572C160.79 175.021 173.958 161.854 173.958 124.636V65.0149C173.958 27.7974 160.79 14.6296 123.572 14.6296H122.384C88.458 14.6296 74.9244 25.5114 72.4554 54.7732C71.9982 58.5224 68.7977 61.3572 64.9571 60.9914C61.1165 60.7171 58.3732 57.3337 58.6475 53.5845C61.7566 17.19 81.4169 0.913086 122.292 0.913086H123.481C168.38 0.913086 187.583 20.1162 187.583 65.0149V124.636C187.583 169.535 168.38 188.738 123.481 188.738Z" fill="#C662E4"/>
<path d="M121.273 101.684H17.2112C13.462 101.684 10.3529 98.5747 10.3529 94.8255C10.3529 91.0764 13.462 87.9673 17.2112 87.9673H121.273C125.023 87.9673 128.132 91.0764 128.132 94.8255C128.132 98.5747 125.023 101.684 121.273 101.684Z" fill="#C662E4"/>
<path d="M37.6059 132.321C35.8685 132.321 34.131 131.681 32.7594 130.309L2.12586 99.6754C-0.526002 97.0235 -0.526002 92.6343 2.12586 89.9824L32.7594 59.3488C35.4113 56.6969 39.8005 56.6969 42.4524 59.3488C45.1043 62.0006 45.1043 66.3899 42.4524 69.0418L16.6654 94.8289L42.4524 120.616C45.1043 123.268 45.1043 127.657 42.4524 130.309C41.1722 131.681 39.3433 132.321 37.6059 132.321Z" fill="#C662E4"/>
</svg>
