<svg width="102" height="100" viewBox="0 0 102 100" fill="none" xmlns="http://www.w3.org/2000/svg">
<path d="M101 31L50 1L51.5 99L77.5 83.5L90 75.5L101 69V31Z" fill="white" stroke="#fff"/>
<path d="M1 28L50.5 1L51.5 98.5L1 74V28Z" fill="#1c1e21" stroke="#DB6AF7"/>
<path d="M49.0194 72.9789C48.9215 72.9428 48.824 72.9069 48.727 72.8709M48.727 72.8709C36.8909 68.4808 32.097 64.4111 27 54.4007V29.4421C32.9353 25.9734 38.0776 24.8006 50.2897 24C62.9212 24.5017 68.1723 25.849 74.8498 29.8174L75.0615 54.4007C69.6534 64.86 64.8648 68.9117 53.2539 72.9789V66.4108H48.727V72.8709Z" stroke="#DB6AF7"/>
<path d="M32.5047 41.6024C36.8417 38.6562 39.3444 38.6434 43.9378 41.6024C39.5343 43.6659 37.0403 43.6821 32.5047 41.6024Z" fill="#DB6AF7"/>
<path d="M58.9703 41.6024C62.9948 38.9495 65.3568 38.9195 69.7682 41.6024C65.7411 43.5879 63.3844 43.6456 58.9703 41.6024Z" fill="#DB6AF7"/>
<path d="M32.5047 41.6024C36.8417 38.6562 39.3444 38.6434 43.9378 41.6024C39.5343 43.6659 37.0403 43.6821 32.5047 41.6024Z" stroke="#f"/>
<path d="M58.9703 41.6024C62.9948 38.9495 65.3568 38.9195 69.7682 41.6024C65.7411 43.5879 63.3844 43.6456 58.9703 41.6024Z" stroke="#fff"/>
<path d="M38.2213 33.6117C34.8346 33.8553 33.0167 34.457 29.9641 36.6142C30.9268 34.1815 32.4152 32.9002 37.1627 30.7968C42.0261 30.572 44.4603 31.161 47.5372 35.3006C48.6951 36.4836 48.7529 37.1409 47.9607 38.3031C46.636 39.6506 45.87 39.4989 44.4854 38.4908C43.1315 35.6282 41.8104 34.4668 38.2213 33.6117Z" fill="#DB6AF7"/>
<path d="M60.8759 30.9844C56.2683 32.7012 54.4733 34.1519 54.1007 38.4908C55.1022 39.3077 55.6963 39.4999 56.8531 39.0537C58.5842 36.4483 59.8086 35.279 62.3579 33.6117C64.9817 32.2586 66.1905 32.4577 68.0745 33.7993L72.0973 36.9895C71.8974 35.4616 71.4355 34.6449 70.1917 33.2363C68.8951 31.8401 67.9116 31.354 65.7455 30.9844H60.8759Z" fill="#DB6AF7"/>
<path d="M44.5731 38.6784C44.5438 38.6151 44.5146 38.5525 44.4854 38.4908M44.4854 38.4908C43.1315 35.6282 41.8104 34.4668 38.2213 33.6117C34.8346 33.8553 33.0167 34.457 29.9641 36.6142C30.9268 34.1815 32.4152 32.9002 37.1627 30.7968C42.0261 30.572 44.4603 31.161 47.5372 35.3006C48.6951 36.4836 48.7529 37.1409 47.9607 38.3031C46.636 39.6506 45.87 39.4989 44.4854 38.4908ZM54.1007 38.4908C54.4733 34.1519 56.2683 32.7012 60.8759 30.9844H65.7455C67.9116 31.354 68.8951 31.8401 70.1917 33.2363C71.4355 34.6449 71.8974 35.4616 72.0973 36.9895L68.0745 33.7993C66.1905 32.4577 64.9817 32.2586 62.3579 33.6117C59.8086 35.279 58.5842 36.4483 56.8531 39.0537C55.6963 39.4999 55.1022 39.3077 54.1007 38.4908Z" stroke="#f"/>
<path d="M39.2799 61.5317L32.5047 51.3981L40.5502 57.2155H44.3613L49.0192 53.4624H53.8889L57.9116 57.2155H61.7227L69.9799 51.3981L63.2047 61.7193H53.4654C52.9408 60.8135 52.5054 60.3863 51.3482 59.8428C50.2968 60.3554 49.7815 60.7204 49.0192 61.5317H39.2799Z" fill="#DB6AF7" stroke="#ff"/>
</svg>
