<svg width="90" height="87" viewBox="0 0 90 87" fill="none" xmlns="http://www.w3.org/2000/svg">
<path fill-rule="evenodd" clip-rule="evenodd" d="M75.4974 80.0523H12.1863C5.456 80.0523 0 74.5963 0 67.866V31.3071C0 24.5767 5.456 19.1208 12.1863 19.1208H14.5658L1.18976 5.74468L6.93445 0L88.1765 81.2421L82.4318 86.9868L75.4974 80.0523ZM22.69 27.245H12.1863C9.94287 27.245 8.12421 29.0636 8.12421 31.3071V67.866C8.12421 70.1094 9.94287 71.9281 12.1863 71.9281H67.3732L58.1797 62.7346C54.5201 65.992 49.7542 67.866 44.6831 67.866C33.466 67.866 24.3726 58.7727 24.3726 47.5555C24.3726 42.4814 26.2492 37.7157 29.5039 34.0588L22.69 27.245ZM35.2648 39.8197C33.5019 41.9621 32.4968 44.673 32.4968 47.5555C32.4968 54.2858 37.9528 59.7418 44.6831 59.7418C47.5643 59.7418 50.2749 58.7381 52.4189 56.9738L35.2648 39.8197ZM77.18 19.1208C83.9103 19.1208 89.3663 24.5767 89.3663 31.3071V67.866H81.2421V31.3071C81.2421 29.0636 79.4234 27.245 77.18 27.245H64.9937C62.295 27.245 60.4751 25.768 58.6543 23.2367C58.2353 22.6543 57.8203 22.0183 57.3209 21.209C57.0687 20.8004 56.2229 19.4014 56.105 19.2084C54.2677 16.203 53.1596 15.0587 52.8073 15.0587H36.5589C36.7156 15.0587 36.604 15.1212 36.0799 15.621C35.8013 15.8867 34.5689 17.1502 34.6371 17.0815C34.6188 17.0999 32.6816 15.2074 28.8256 11.4039C28.6995 11.5311 30.0695 10.1265 30.4735 9.74132C32.3666 7.93619 34.152 6.93444 36.5589 6.93444H52.8073C57.2213 6.93444 59.6691 9.46265 63.0365 14.971C63.1727 15.1938 64.0061 16.5722 64.2345 16.9423C64.6421 17.6028 64.9617 18.0926 65.2495 18.4927C65.4393 18.7565 65.605 18.9661 65.7403 19.1208H77.18ZM73.1179 39.4313C70.8744 39.4313 69.0558 37.6126 69.0558 35.3692C69.0558 33.1257 70.8744 31.3071 73.1179 31.3071C75.3613 31.3071 77.18 33.1257 77.18 35.3692C77.18 37.6126 75.3613 39.4313 73.1179 39.4313Z" fill="#DB6AF7"/>
</svg>
