<svg width="21" height="12" viewBox="0 0 21 12" fill="none" xmlns="http://www.w3.org/2000/svg">
<path d="M20.1308 11.939H1.34862C0.963583 11.939 0.644287 11.7577 0.644287 11.5391C0.644287 11.3205 0.963583 11.1392 1.34862 11.1392H20.1308C20.5158 11.1392 20.8351 11.3205 20.8351 11.5391C20.8351 11.7577 20.5158 11.939 20.1308 11.939Z" class="navigation_path_fill" fill-opacity="0.9"/>
<path d="M12.8527 11.9389H8.62669C8.24166 11.9389 7.92236 11.7576 7.92236 11.539V1.94119C7.92236 1.02406 8.81451 0.474854 10.3171 0.474854H11.1623C12.6649 0.474854 13.557 1.02406 13.557 1.94119V11.539C13.557 11.7576 13.2377 11.9389 12.8527 11.9389ZM9.33102 11.1391H12.1483V1.94119C12.1483 1.32799 11.6412 1.27467 11.1623 1.27467H10.3171C9.83814 1.27467 9.33102 1.32799 9.33102 1.94119V11.1391Z" class="navigation_path_fill"  fill-opacity="0.9"/>
<path d="M6.04401 11.9391H2.28758C1.90255 11.9391 1.58325 11.7578 1.58325 11.5392V5.14065C1.58325 4.22353 2.40967 3.67432 3.79015 3.67432H4.54144C5.92192 3.67432 6.74834 4.22353 6.74834 5.14065V11.5392C6.74834 11.7578 6.42904 11.9391 6.04401 11.9391ZM2.99191 11.1393H5.33968V5.14065C5.33968 4.47414 4.82317 4.47414 4.54144 4.47414H3.79015C3.50842 4.47414 2.99191 4.47414 2.99191 5.14065V11.1393Z"  class="navigation_path_fill" fill-opacity="0.9"/>
<path d="M19.1915 11.9391H15.435C15.05 11.9391 14.7307 11.7578 14.7307 11.5392V7.80667C14.7307 6.88954 15.5571 6.34033 16.9376 6.34033H17.6889C19.0694 6.34033 19.8958 6.88954 19.8958 7.80667V11.5392C19.8958 11.7578 19.5765 11.9391 19.1915 11.9391ZM16.1394 11.1392H18.4871V7.80667C18.4871 7.14015 17.9706 7.14015 17.6889 7.14015H16.9376C16.6559 7.14015 16.1394 7.14015 16.1394 7.80667V11.1392Z"  class="navigation_path_fill" fill-opacity="0.9"/>
</svg>
