<svg width="18" height="12" viewBox="0 0 18 12" fill="none" xmlns="http://www.w3.org/2000/svg">
<path d="M8.69231 11.0688C8.61758 11.0688 8.54285 11.0578 8.4757 11.0358L0.409478 8.39159C0.275398 8.34768 0.192871 8.26639 0.192871 8.17858V2.89015C0.192871 2.80234 0.275398 2.72105 0.409478 2.67714L8.4757 0.0329297C8.60978 -0.0109766 8.77483 -0.0109766 8.90891 0.0329297L16.9751 2.67714C17.1092 2.72105 17.1917 2.80234 17.1917 2.89015V8.17858C17.1917 8.26651 17.1092 8.34768 16.9751 8.39159L8.90891 11.0358C8.84177 11.0578 8.76704 11.0688 8.69231 11.0688ZM1.0593 8.03665L8.69231 10.5387L16.3253 8.03653V3.0322L8.69231 0.530041L1.0593 3.0322V8.03665Z" class="navigation_path_fill" fill-opacity="0.9"/>
<path d="M4.9624 8.40457C4.77027 8.40457 4.59764 8.33188 4.54522 8.22415L3.28781 5.6429V7.51402C3.28781 7.6498 3.09373 7.76 2.8546 7.76C2.61547 7.76 2.42139 7.6498 2.42139 7.51402V3.83107C2.42139 3.70808 2.58146 3.60391 2.79633 3.58731C3.01121 3.57083 3.21438 3.64683 3.27222 3.76551L4.52962 6.34676V3.07605C4.52962 2.94027 4.7237 2.83008 4.96283 2.83008C5.20197 2.83008 5.39605 2.94027 5.39605 3.07605V8.15859C5.39605 8.2817 5.23598 8.38587 5.0211 8.40223C5.00139 8.40383 4.9819 8.40457 4.9624 8.40457Z" class="navigation_path_fill"  fill-opacity="0.9"/>
<path d="M14.9626 3.89719C14.8861 3.89719 14.809 3.88576 14.7391 3.86165L11.9886 2.91798C11.7839 2.84775 11.718 2.69648 11.8417 2.58025C11.9654 2.46379 12.2323 2.42677 12.4365 2.49687L15.187 3.44055C15.3917 3.51077 15.4575 3.66204 15.3339 3.77827C15.2524 3.85489 15.1092 3.89719 14.9626 3.89719Z" class="navigation_path_fill" fill-opacity="0.9"/>
<path d="M6.79918 9.14281C6.56005 9.14281 6.36597 9.03261 6.36597 8.89684V2.17759C6.36597 2.091 6.44611 2.01082 6.57694 1.96642L8.52207 1.30647C8.65962 1.25986 8.83117 1.26023 8.96828 1.30709L11.3211 2.11437C11.5258 2.1846 11.5916 2.33587 11.4679 2.45222C11.344 2.56844 11.0776 2.60558 10.8731 2.53548L8.74301 1.80457L7.23239 2.31705V8.89684C7.23239 9.03261 7.03853 9.14281 6.79918 9.14281Z" class="navigation_path_fill"  fill-opacity="0.9"/>
<path d="M10.6115 5.75928H6.79918C6.56005 5.75928 6.36597 5.64908 6.36597 5.51331C6.36597 5.37753 6.56005 5.26733 6.79918 5.26733H10.6115C10.8506 5.26733 11.0447 5.37753 11.0447 5.51331C11.0447 5.64908 10.8508 5.75928 10.6115 5.75928Z" class="navigation_path_fill" fill-opacity="0.9"/>
<path d="M13.5291 8.34306C13.2901 8.34306 13.0962 8.23287 13.0962 8.09709V3.15955C13.0962 3.02377 13.2901 2.91357 13.5291 2.91357C13.7681 2.91357 13.962 3.02377 13.962 3.15955V8.09697C13.962 8.23287 13.7683 8.34306 13.5291 8.34306Z" class="navigation_path_fill" fill-opacity="0.9"/>
</svg>
