<svg width="21" height="12" viewBox="0 0 21 12" fill="none" xmlns="http://www.w3.org/2000/svg">
<path class="navigation_path_fill" d="M19.5606 2.19559V8.56907C19.5606 9.07599 18.8353 9.55118 17.9425 9.61454L17.6356 9.63572C15.6082 9.78885 12.4834 10.3749 10.6978 10.9346C10.456 11.0139 10.0561 11.0139 9.80497 10.9346L9.76777 10.9241C7.98215 10.3697 4.86671 9.78885 2.84862 9.63572L2.57888 9.61454C1.68608 9.55118 0.960693 9.07599 0.960693 8.56907V2.1903C0.960693 1.56193 1.86276 1.0867 2.96946 1.13951C4.92246 1.22927 7.87985 1.78901 9.53527 2.37514L9.76777 2.45432C10.0375 2.54938 10.4839 2.54938 10.7536 2.45432L10.9117 2.39625C11.4976 2.19031 12.2416 1.98437 13.0507 1.79956V3.95397L14.9107 3.25167L16.7707 3.95397V1.19762C17.0218 1.17122 17.2636 1.15535 17.4868 1.14479H17.5426C18.6493 1.09199 19.5606 1.56194 19.5606 2.19559Z"  fill-opacity="0.9"  stroke-opacity="0.9" stroke-linecap="round" stroke-linejoin="round"/>
</svg>
